<svg width="190" height="36" viewBox="0 0 190 36" fill="none" xmlns="http://www.w3.org/2000/svg">
<path d="M34.7404 1.37037C34.7041 0.99555 34.5296 0.647644 34.251 0.394349C33.9723 0.141054 33.6094 0.000486674 33.2328 0H1.48096V0.00406271C1.11219 0.0142816 0.75982 0.158722 0.489979 0.41028C0.220138 0.661838 0.051371 1.00322 0.0153469 1.37037H0V26.8017H0.0306933C0.099531 27.1384 0.280413 27.442 0.543858 27.6628C0.807302 27.8836 1.13777 28.0087 1.48141 28.0177V28.0217H6.70109V31.0658C6.70097 31.3921 6.80572 31.7099 6.9999 31.9722C7.19408 32.2345 7.46741 32.4275 7.77958 32.5227C8.09176 32.6178 8.42625 32.6102 8.73374 32.5008C9.04123 32.3915 9.30545 32.1862 9.48742 31.9153L13.3814 28.0213H33.2328C33.5842 28.0215 33.9248 27.9002 34.1969 27.6778C34.4689 27.4554 34.6555 27.1456 34.7251 26.8012H34.7558V1.37037H34.7404ZM7.62776 16.5934C6.24882 16.5934 5.01566 15.5078 5.01566 13.5999C5.01566 11.3981 6.21948 9.4319 8.03941 8.14052L8.04573 8.14594C8.09066 8.1215 8.14084 8.10834 8.19198 8.10757C8.26273 8.10864 8.33108 8.13344 8.38607 8.17799L8.38968 8.17483L9.60974 8.94487L9.60252 8.95164C9.68918 9.01077 9.74922 9.10511 9.74922 9.21795C9.74865 9.27708 9.73195 9.33494 9.70093 9.38529C9.66991 9.43564 9.62574 9.47657 9.57318 9.50367L9.57408 9.50457L9.55332 9.51721L9.5479 9.52037C8.61582 10.0277 7.62505 11.2022 7.36371 12.2494C7.48106 12.1907 7.71578 12.1614 7.95094 12.1614C9.06629 12.1614 9.94647 13.0122 9.94647 14.2742C9.94692 15.5367 8.8898 16.5934 7.62776 16.5934ZM13.6008 16.5934C12.2218 16.5934 10.9887 15.5078 10.9887 13.5999C10.9887 11.3981 12.1925 9.4319 14.0124 8.14052L14.0188 8.14594C14.0637 8.1215 14.1139 8.10834 14.165 8.10757C14.2358 8.10864 14.3041 8.13344 14.3591 8.17799L14.3627 8.17483L15.5828 8.94487L15.5755 8.95164C15.6622 9.01077 15.7222 9.10511 15.7222 9.21795C15.7217 9.27708 15.705 9.33494 15.674 9.38529C15.6429 9.43564 15.5988 9.47657 15.5462 9.50367L15.5471 9.50457L15.5263 9.51721L15.5209 9.52037C14.5888 10.0277 13.5981 11.2022 13.3367 12.2494C13.4541 12.1907 13.6888 12.1614 13.924 12.1614C15.0393 12.1614 15.9195 13.0122 15.9195 14.2742C15.9195 15.5363 14.8628 16.5934 13.6008 16.5934ZM20.7433 19.8374L20.737 19.832C20.6921 19.8564 20.6419 19.8696 20.5908 19.8704C20.52 19.8693 20.4517 19.8445 20.3967 19.7999L20.3931 19.8031L19.173 19.0331L19.1802 19.0263C19.1356 18.9975 19.0989 18.9581 19.0733 18.9116C19.0477 18.8652 19.034 18.8131 19.0335 18.76C19.0335 18.635 19.1062 18.5293 19.2096 18.4743L19.2087 18.4734L19.2294 18.4607L19.2348 18.4576C20.1669 17.9502 21.1577 16.7757 21.419 15.7286C21.3017 15.7872 21.067 15.8166 20.8318 15.8166C19.7164 15.8166 18.8363 14.9657 18.8363 13.7037C18.8363 12.4417 19.8934 11.385 21.1554 11.385C22.5344 11.385 23.7675 12.4705 23.7675 14.3785C23.7671 16.5799 22.5633 18.546 20.7433 19.8374ZM26.7163 19.8374L26.71 19.832C26.6651 19.8564 26.6149 19.8696 26.5638 19.8704C26.493 19.8693 26.4247 19.8445 26.3697 19.7999L26.3661 19.8031L25.146 19.0331L25.1532 19.0263C25.1087 18.9975 25.0719 18.9581 25.0463 18.9116C25.0207 18.8652 25.007 18.8131 25.0065 18.76C25.0065 18.635 25.0792 18.5293 25.1826 18.4743L25.1817 18.4734L25.2024 18.4607L25.2079 18.4576C26.1399 17.9502 27.1307 16.7757 27.3921 15.7286C27.2747 15.7872 27.04 15.8166 26.8048 15.8166C25.6895 15.8166 24.8093 14.9657 24.8093 13.7037C24.8093 12.4417 25.8664 11.385 27.1284 11.385C28.5074 11.385 29.7405 12.4705 29.7405 14.3785C29.7401 16.5799 28.5363 18.546 26.7163 19.8374Z" fill="#F84F4F"/>
<path d="M63.1758 5.49442V29.2544H56.2998L48.9198 16.4024L47.1198 12.8744H47.0838L47.2278 17.2664V29.2544H41.7558V5.49442H48.6318L56.0118 18.3464L57.8118 21.8744H57.8478L57.7038 17.4824V5.49442H63.1758Z" fill="black"/>
<path d="M73.2603 29.2544C71.2683 29.2544 69.5403 28.8824 68.0763 28.1384C66.6363 27.3944 65.5203 26.3264 64.7283 24.9344C63.9363 23.5424 63.5403 21.8624 63.5403 19.8944C63.5403 17.9264 63.9363 16.2464 64.7283 14.8544C65.5203 13.4624 66.6243 12.3944 68.0403 11.6504C69.4803 10.9064 71.1243 10.5344 72.9723 10.5344C74.8683 10.5344 76.4763 10.9064 77.7963 11.6504C79.1403 12.3704 80.1603 13.3784 80.8563 14.6744C81.5523 15.9464 81.9003 17.4104 81.9003 19.0664C81.9003 19.4984 81.8883 19.9304 81.8643 20.3624C81.8403 20.7944 81.8043 21.1544 81.7563 21.4424H67.5003V18.1664H79.0563L76.1403 19.2824C76.1403 17.8424 75.8763 16.7384 75.3483 15.9704C74.8443 15.2024 74.0523 14.8184 72.9723 14.8184C72.2043 14.8184 71.5443 14.9984 70.9923 15.3584C70.4643 15.7184 70.0563 16.2824 69.7683 17.0504C69.5043 17.8184 69.3723 18.8024 69.3723 20.0024C69.3723 21.1784 69.5283 22.1384 69.8403 22.8824C70.1523 23.6024 70.5963 24.1304 71.1723 24.4664C71.7483 24.7784 72.4443 24.9344 73.2603 24.9344C74.1723 24.9344 74.8923 24.7544 75.4203 24.3944C75.9723 24.0344 76.3803 23.5304 76.6443 22.8824L81.5403 24.5024C81.2043 25.5344 80.6163 26.4104 79.7763 27.1304C78.9603 27.8264 77.9763 28.3544 76.8243 28.7144C75.6963 29.0744 74.5083 29.2544 73.2603 29.2544Z" fill="black"/>
<path d="M99.2649 15.9835C99.2649 16.1656 99.1659 16.3333 99.0065 16.4212L91.8999 20.3428C91.7266 20.4384 91.626 20.6272 91.6433 20.8243L91.76 22.1536C91.7754 22.3298 91.6967 22.5009 91.553 22.6039L83.056 28.688C82.7251 28.9249 82.2649 28.6884 82.2649 28.2814V22.7995C82.2649 22.6188 82.3623 22.4522 82.5198 22.3637L89.762 18.2905C89.9194 18.202 90.0169 18.0354 90.0169 17.8547V16.3629C90.0169 16.2014 90.0948 16.0499 90.2262 15.9561L98.4742 10.0617C98.8051 9.82522 99.2649 10.0618 99.2649 10.4685V15.9835ZM99.2649 28.1459C99.2649 28.5523 98.8058 28.7889 98.4748 28.5531L90.3111 22.7374C90.1704 22.6371 90.0914 22.4714 90.1022 22.299L90.2015 20.7075C90.2134 20.517 90.1158 20.3364 89.95 20.2419L82.5174 16.0073C82.3613 15.9183 82.2649 15.7525 82.2649 15.5728V10.2348C82.2649 9.82645 82.7279 9.5903 83.0585 9.83008L91.6109 16.0339C91.7599 16.142 91.8375 16.3233 91.8127 16.5057L91.6266 17.8787C91.599 18.0824 91.6989 18.2822 91.8784 18.3825L99.0087 22.3639C99.1669 22.4523 99.2649 22.6193 99.2649 22.8005V28.1459Z" fill="black"/>
<path d="M108.845 5.17042V22.4864C108.845 23.3504 109.049 23.9744 109.457 24.3584C109.889 24.7184 110.477 24.8984 111.221 24.8984C111.797 24.8984 112.289 24.8384 112.697 24.7184C113.129 24.5744 113.513 24.3704 113.849 24.1064L114.497 27.8864C113.897 28.3184 113.141 28.6544 112.229 28.8944C111.317 29.1344 110.381 29.2544 109.421 29.2544C108.053 29.2544 106.865 29.0624 105.857 28.6784C104.873 28.2944 104.105 27.6824 103.553 26.8424C103.025 26.0024 102.749 24.8864 102.725 23.4944V6.86242L108.845 5.17042ZM114.209 10.8944V15.2504H99.6295V10.8944H114.209Z" fill="black"/>
<path d="M126.202 4.77442C128.41 4.77442 130.354 5.12242 132.034 5.81842C133.738 6.49042 135.214 7.48642 136.462 8.80642L133.474 12.8024C132.442 11.7224 131.326 10.9184 130.126 10.3904C128.95 9.83842 127.606 9.56242 126.094 9.56242C125.206 9.56242 124.486 9.65842 123.934 9.85042C123.382 10.0424 122.986 10.3064 122.746 10.6424C122.506 10.9784 122.386 11.3624 122.386 11.7944C122.386 12.2984 122.614 12.7304 123.07 13.0904C123.55 13.4264 124.318 13.7144 125.374 13.9544L129.37 14.8544C131.746 15.4064 133.486 16.2104 134.59 17.2664C135.694 18.3224 136.246 19.7264 136.246 21.4784C136.246 23.1584 135.814 24.5864 134.95 25.7624C134.086 26.9144 132.898 27.7904 131.386 28.3904C129.874 28.9664 128.146 29.2544 126.202 29.2544C124.618 29.2544 123.106 29.0864 121.666 28.7504C120.226 28.3904 118.93 27.8864 117.778 27.2384C116.626 26.5904 115.654 25.8464 114.862 25.0064L117.85 20.8664C118.45 21.5624 119.182 22.1864 120.046 22.7384C120.934 23.2664 121.894 23.6864 122.926 23.9984C123.982 24.3104 125.05 24.4664 126.13 24.4664C126.97 24.4664 127.666 24.3824 128.218 24.2144C128.794 24.0464 129.214 23.7944 129.478 23.4584C129.742 23.1224 129.874 22.7264 129.874 22.2704C129.874 21.7664 129.694 21.3464 129.334 21.0104C128.974 20.6504 128.29 20.3504 127.282 20.1104L122.89 19.1384C121.546 18.8264 120.346 18.4184 119.29 17.9144C118.258 17.3864 117.442 16.6904 116.842 15.8264C116.242 14.9384 115.942 13.8344 115.942 12.5144C115.942 11.0264 116.35 9.70642 117.166 8.55442C117.982 7.37842 119.158 6.45442 120.694 5.78242C122.23 5.11042 124.066 4.77442 126.202 4.77442Z" fill="black"/>
<path d="M146.043 5.17042V22.4864C146.043 23.3504 146.247 23.9744 146.655 24.3584C147.087 24.7184 147.675 24.8984 148.419 24.8984C148.995 24.8984 149.487 24.8384 149.895 24.7184C150.327 24.5744 150.711 24.3704 151.047 24.1064L151.695 27.8864C151.095 28.3184 150.339 28.6544 149.427 28.8944C148.515 29.1344 147.579 29.2544 146.619 29.2544C145.251 29.2544 144.063 29.0624 143.055 28.6784C142.071 28.2944 141.303 27.6824 140.751 26.8424C140.223 26.0024 139.947 24.8864 139.923 23.4944V6.86242L146.043 5.17042ZM151.407 10.8944V15.2504H136.827V10.8944H151.407Z" fill="black"/>
<path d="M161.779 29.2544C159.787 29.2544 158.059 28.8824 156.595 28.1384C155.155 27.3944 154.039 26.3264 153.247 24.9344C152.455 23.5424 152.059 21.8624 152.059 19.8944C152.059 17.9264 152.455 16.2464 153.247 14.8544C154.039 13.4624 155.143 12.3944 156.559 11.6504C157.999 10.9064 159.643 10.5344 161.491 10.5344C163.387 10.5344 164.995 10.9064 166.315 11.6504C167.659 12.3704 168.679 13.3784 169.375 14.6744C170.071 15.9464 170.419 17.4104 170.419 19.0664C170.419 19.4984 170.407 19.9304 170.383 20.3624C170.359 20.7944 170.323 21.1544 170.275 21.4424H156.019V18.1664H167.575L164.659 19.2824C164.659 17.8424 164.395 16.7384 163.867 15.9704C163.363 15.2024 162.571 14.8184 161.491 14.8184C160.723 14.8184 160.063 14.9984 159.511 15.3584C158.983 15.7184 158.575 16.2824 158.287 17.0504C158.023 17.8184 157.891 18.8024 157.891 20.0024C157.891 21.1784 158.047 22.1384 158.359 22.8824C158.671 23.6024 159.115 24.1304 159.691 24.4664C160.267 24.7784 160.963 24.9344 161.779 24.9344C162.691 24.9344 163.411 24.7544 163.939 24.3944C164.491 24.0344 164.899 23.5304 165.163 22.8824L170.059 24.5024C169.723 25.5344 169.135 26.4104 168.295 27.1304C167.479 27.8264 166.495 28.3544 165.343 28.7144C164.215 29.0744 163.027 29.2544 161.779 29.2544Z" fill="black"/>
<path d="M170.756 35.2544V9.69442H176.264L176.588 16.2104L175.868 15.4544C176.036 14.2544 176.408 13.1984 176.984 12.2864C177.56 11.3744 178.304 10.6544 179.216 10.1264C180.128 9.59842 181.172 9.33442 182.348 9.33442C183.836 9.33442 185.132 9.70642 186.236 10.4504C187.34 11.1704 188.192 12.2264 188.792 13.6184C189.416 14.9864 189.728 16.6544 189.728 18.6224C189.728 20.5904 189.416 22.2824 188.792 23.6984C188.168 25.1144 187.292 26.1944 186.164 26.9384C185.06 27.6824 183.764 28.0544 182.276 28.0544C180.644 28.0544 179.324 27.5744 178.316 26.6144C177.308 25.6304 176.636 24.3944 176.3 22.9064L176.876 22.0424V35.2544H170.756ZM180.188 23.5544C181.244 23.5544 182.072 23.1704 182.672 22.4024C183.272 21.6104 183.572 20.3744 183.572 18.6944C183.572 17.0144 183.272 15.7904 182.672 15.0224C182.096 14.2304 181.28 13.8344 180.224 13.8344C179.552 13.8344 178.964 14.0264 178.46 14.4104C177.956 14.7704 177.56 15.3104 177.272 16.0304C177.008 16.7504 176.876 17.6384 176.876 18.6944C176.876 19.7024 176.996 20.5784 177.236 21.3224C177.5 22.0424 177.884 22.5944 178.388 22.9784C178.892 23.3624 179.492 23.5544 180.188 23.5544Z" fill="black"/>
</svg>
